<?xml version="1.0" encoding="UTF-8"?>
<!DOCTYPE svg PUBLIC "-//W3C//DTD SVG 1.1//EN" "http://www.w3.org/Graphics/SVG/1.1/DTD/svg11.dtd">
<!-- Creator: CorelDRAW X7 -->
<svg xmlns="http://www.w3.org/2000/svg" xml:space="preserve" width="66.1699mm" height="68.0303mm" version="1.1" style="shape-rendering:geometricPrecision; text-rendering:geometricPrecision; image-rendering:optimizeQuality; fill-rule:evenodd; clip-rule:evenodd" viewBox="0 0 3760 3866" xmlns:xlink="http://www.w3.org/1999/xlink">
    <g id="Layer_x0020_1">
        <metadata id="CorelCorpID_0Corel-Layer"/>
        <path class="icon-reverse" d="M967 2809c24,-37 226,-230 285,-289 33,-33 77,-55 77,-119 0,-64 -56,-83 -113,-83l-1103 0c-70,0 -113,28 -113,98l0 1156c0,53 45,75 98,75 45,0 163,-136 198,-172 45,-44 143,-153 187,-183 40,27 155,145 255,213 50,34 87,61 141,94 235,141 584,267 903,267l12 0 95 0c167,0 219,-5 437,-52 107,-23 208,-62 301,-100 207,-84 438,-243 599,-405 18,-18 31,-31 49,-49 22,-21 28,-35 49,-56 34,-35 62,-74 91,-113 31,-42 57,-76 84,-121 14,-24 24,-37 37,-60 14,-25 23,-42 35,-64 50,-85 167,-367 167,-460 0,-47 -42,-75 -91,-75l-506 0c-109,0 -84,85 -182,247 -75,123 -183,260 -294,348 -21,16 -39,32 -60,46 -442,311 -938,328 -1399,56 -68,-40 -200,-140 -239,-199zm-944 -1344c0,56 27,91 90,91l506 0c80,0 87,-43 110,-102 69,-176 223,-380 367,-494 134,-106 250,-178 423,-233 370,-118 716,-57 1036,131 67,40 199,140 239,199 -25,37 -226,230 -285,289 -33,33 -78,56 -78,119 0,25 17,54 33,65 17,12 54,18 81,18l1102 0c71,0 113,-28 113,-98l0 -1156c0,-52 -45,-75 -98,-75 -45,0 -162,136 -198,172 -45,45 -143,154 -187,183 -53,-36 -76,-73 -124,-110 -47,-37 -81,-69 -131,-103 -298,-203 -644,-361 -1044,-361l-12 0 -94 0c-168,0 -220,5 -438,52 -225,48 -499,182 -684,320l-167 136c-61,56 -105,113 -147,155 -43,43 -142,178 -174,233 -86,145 -63,112 -139,262 -21,42 -100,257 -100,307z"/>
    </g>
</svg>
