<?xml version="1.0" encoding="UTF-8"?>
<!DOCTYPE svg PUBLIC "-//W3C//DTD SVG 1.1//EN" "http://www.w3.org/Graphics/SVG/1.1/DTD/svg11.dtd">
<!-- Creator: CorelDRAW X7 -->
<svg xmlns="http://www.w3.org/2000/svg" xml:space="preserve" width="75.686mm" height="68.9179mm" version="1.1" style="shape-rendering:geometricPrecision; text-rendering:geometricPrecision; image-rendering:optimizeQuality; fill-rule:evenodd; clip-rule:evenodd" viewBox="0 0 9066 8255" xmlns:xlink="http://www.w3.org/1999/xlink">
 <g id="Layer_x0020_1">
  <metadata id="CorelCorpID_0Corel-Layer"/>
  <path class="icon-reverse" d="M3461 3225l4345 0c112,0 203,-91 203,-202l0 -1350c0,-112 -91,-203 -203,-203l-4349 0 0 -1296c-1,-183 -213,-217 -356,-123 -525,349 -932,659 -1451,1025 -514,363 -1029,725 -1544,1088 -129,92 -149,258 -12,362 511,381 1038,730 1556,1096 515,363 943,662 1457,1024 131,91 346,92 350,-105 9,-439 7,-878 4,-1316l0 0zm2144 3549l-4346 0c-111,0 -203,-91 -203,-202l0 -1350c0,-111 92,-203 203,-203l4350 0 0 -1296c1,-183 213,-217 355,-123 526,349 933,660 1451,1025 515,363 1030,726 1544,1088 130,93 149,259 12,362 -510,381 -1037,731 -1556,1096 -514,363 -942,662 -1457,1024 -130,92 -345,93 -349,-104 -9,-439 -7,-878 -4,-1317l0 0z"/>
 </g>
</svg>
